<?xml version="1.0" encoding="UTF-8"?>
<svg xmlns="http://www.w3.org/2000/svg" viewBox="0 0 100 100" role="img" aria-label="Portrait femme afro">
  <circle cx="50" cy="50" r="50" fill="#E9C46A"/>
  <path d="M22,100 Q22,72 50,72 Q78,72 78,100 Z" fill="#6B3F1D"/>
  <circle cx="50" cy="32" r="28" fill="#1A1A1A"/>
  <ellipse cx="50" cy="48" rx="22" ry="26" fill="#6B3F1D"/>
  <path d="M30,38 Q28,18 50,12 Q72,18 70,38" fill="#1A1A1A"/>
  <circle cx="30" cy="30" r="6" fill="#1A1A1A"/>
  <circle cx="70" cy="30" r="6" fill="#1A1A1A"/>
  <circle cx="26" cy="42" r="5" fill="#1A1A1A"/>
  <circle cx="74" cy="42" r="5" fill="#1A1A1A"/>
  <ellipse cx="42" cy="48" rx="1.8" ry="2.4" fill="#1A1A1A"/>
  <ellipse cx="58" cy="48" rx="1.8" ry="2.4" fill="#1A1A1A"/>
  <path d="M43,60 Q50,65 57,60" stroke="#3D1A0A" stroke-width="1.6" fill="none" stroke-linecap="round"/>
  <circle cx="27" cy="58" r="2.8" fill="none" stroke="#F4D35E" stroke-width="1.5"/>
  <circle cx="73" cy="58" r="2.8" fill="none" stroke="#F4D35E" stroke-width="1.5"/>
</svg>
