<?xml version="1.0" encoding="UTF-8"?>
<svg xmlns="http://www.w3.org/2000/svg" viewBox="0 0 100 100" role="img" aria-label="Portrait femme cornrows">
  <circle cx="50" cy="50" r="50" fill="#C9B1FF"/>
  <path d="M22,100 Q22,72 50,72 Q78,72 78,100 Z" fill="#5D2E1F"/>
  <ellipse cx="50" cy="48" rx="22" ry="26" fill="#6B3F1D"/>
  <g fill="#1A1A1A">
    <path d="M28,36 Q28,20 50,16 Q72,20 72,36 Q66,26 60,24 Q55,22 50,22 Q45,22 40,24 Q34,26 28,36 Z"/>
  </g>
  <g stroke="#2A2A2A" stroke-width="1.2" fill="none">
    <path d="M30,38 Q30,30 50,28"/>
    <path d="M36,38 Q36,28 50,26"/>
    <path d="M42,38 Q42,26 50,24"/>
    <path d="M50,38 L50,24"/>
    <path d="M58,38 Q58,26 50,24"/>
    <path d="M64,38 Q64,28 50,26"/>
    <path d="M70,38 Q70,30 50,28"/>
  </g>
  <ellipse cx="42" cy="48" rx="1.8" ry="2.4" fill="#1A1A1A"/>
  <ellipse cx="58" cy="48" rx="1.8" ry="2.4" fill="#1A1A1A"/>
  <path d="M43,60 Q50,65 57,60" stroke="#3D1A0A" stroke-width="1.6" fill="none" stroke-linecap="round"/>
  <path d="M26,54 L26,60 M74,54 L74,60" stroke="#F4D35E" stroke-width="3" stroke-linecap="round"/>
</svg>
