<?xml version="1.0" encoding="UTF-8"?>
<svg xmlns="http://www.w3.org/2000/svg" viewBox="0 0 100 100" role="img" aria-label="Portrait homme coupe fade">
  <circle cx="50" cy="50" r="50" fill="#2A9D8F"/>
  <path d="M22,100 Q22,70 50,70 Q78,70 78,100 Z" fill="#264653"/>
  <ellipse cx="50" cy="48" rx="22" ry="26" fill="#8B4513"/>
  <path d="M28,38 Q28,20 50,18 Q72,20 72,38 Q72,32 66,28 Q58,22 50,22 Q42,22 34,28 Q28,32 28,38 Z" fill="#1A1A1A"/>
  <path d="M28,38 Q36,36 50,36 Q64,36 72,38" stroke="#1A1A1A" stroke-width="1" fill="none" opacity="0.6"/>
  <ellipse cx="42" cy="48" rx="1.8" ry="2.4" fill="#1A1A1A"/>
  <ellipse cx="58" cy="48" rx="1.8" ry="2.4" fill="#1A1A1A"/>
  <path d="M43,60 Q50,64 57,60" stroke="#3D1A0A" stroke-width="1.6" fill="none" stroke-linecap="round"/>
  <path d="M40,64 Q50,68 60,64 Q62,70 50,72 Q38,70 40,64 Z" fill="#3D1A0A" opacity="0.4"/>
</svg>
